<?xml version="1.0" encoding="utf-8"?>
<!-- Generator: Adobe Illustrator 22.1.0, SVG Export Plug-In . SVG Version: 6.00 Build 0)  -->
<svg version="1.1" id="Layer_1" xmlns="http://www.w3.org/2000/svg" xmlns:xlink="http://www.w3.org/1999/xlink" x="0px" y="0px"
	 viewBox="0 0 256 256" style="enable-background:new 0 0 256 256;" xml:space="preserve">
<style type="text/css">
	.st0{fill:#D73735;}
	.st1{fill:#F85252;}
	.st2{fill:#EDAF85;}
	.st3{fill:#F7C09A;}
	.st4{fill:#D8D6D7;}
	.st5{fill:#FFFFFF;}
	.st6{fill:#1C868E;}
	.st7{fill:#40C4DF;}
	.st8{fill:#491352;}
	.st9{fill:#56C1B3;}
	.st10{fill:#7BEFE4;}
</style>
<g>
	<path id="XMLID_1987_" class="st10" d="M128,245.197L128,245.197c-64.726,0-117.197-52.471-117.197-117.197v0
		C10.803,63.274,63.274,10.803,128,10.803h0c64.726,0,117.197,52.471,117.197,117.197v0
		C245.197,192.726,192.726,245.197,128,245.197z"/>
	<path class="st7" d="M210.64,128c0,23.41-9.73,44.55-25.38,59.59c-14.85,14.28-35.03,23.05-57.26,23.05
		c-6.05,0-11.94-0.65-17.62-1.89c-15.19-3.29-28.83-10.76-39.64-21.16C55.09,172.55,45.36,151.41,45.36,128
		c0-23.41,9.73-44.55,25.38-59.59c10.97-10.55,24.86-18.1,40.33-21.31c5.46-1.14,11.13-1.74,16.93-1.74
		c22.23,0,42.41,8.77,57.26,23.05C200.91,83.45,210.64,104.59,210.64,128z"/>
	<path class="st6" d="M110.38,208.75c-15.19-3.29-28.83-10.76-39.64-21.16C55.09,172.55,45.36,151.41,45.36,128
		c0-23.41,9.73-44.55,25.38-59.59c10.97-10.55,24.86-18.1,40.33-21.31C97.3,59.83,17.09,140.36,110.38,208.75z"/>
	<path class="st5" d="M105.698,114.199l10.489,39.145c0.881,3.29,4.993,4.391,7.401,1.983l28.656-28.656
		c2.408-2.408,1.306-6.52-1.983-7.401l-39.145-10.489C107.826,107.899,104.816,110.909,105.698,114.199z"/>
	<path class="st4" d="M152.809,146.278l-9.34,9.34c-1.743,1.743-4.569,1.743-6.312,0l-6.93-6.93l15.652-15.652l6.93,6.93
		C154.552,141.708,154.552,144.535,152.809,146.278z"/>
	<g>
		<path class="st8" d="M188.51,68.455l0.041-0.04c-36.043-34.664-86.647-33.135-121.102,0l0.041,0.039
			c-32.587,33.041-32.594,86.044,0,119.091l-0.041,0.04c34.432,33.115,84.976,34.742,121.102,0l-0.041-0.039
			C221.096,154.504,221.104,101.501,188.51,68.455z M208.305,125.718h-31.385c-1.561-14.551-6.822-28.065-13.312-39.758
			c7.814-3.612,15.08-8.449,21.576-14.38C199.598,86.159,207.74,105.224,208.305,125.718z M135.743,157.031
			c1.26,1.26,2.915,1.891,4.57,1.891s3.311-0.631,4.57-1.891l9.339-9.34c2.521-2.52,2.521-6.621,0-9.141l-5.515-5.515l2.753-2.753
			h21.24c0.793,13.9-2.264,27.129-9.187,39.712c-10.333-4.761-21.602-7.387-33.231-7.695V151.57L135.743,157.031z M133.056,148.688
			l12.824-12.823l5.515,5.515c0.96,0.961,0.96,2.523,0,3.484l-9.339,9.34c-0.961,0.961-2.523,0.961-3.484,0L133.056,148.688z
			 M181.898,68.43c-6.195,5.614-13.142,10.151-20.59,13.547c-9.527-15.918-20.924-28.02-27.189-34.086
			C151.543,49.204,168.28,56.087,181.898,68.43z M130.282,50.583c5.765,5.584,17.114,17.521,26.645,33.254
			c-8.425,3.248-17.415,5.044-26.645,5.302V50.583z M130.282,93.7c10.052-0.265,19.831-2.266,28.972-5.882
			c6.301,11.221,11.446,24.131,13.05,37.899h-17.146c1.242-3.429-0.625-7.375-4.379-8.38l-20.497-5.492V93.7z M125.718,50.587
			v38.552c-9.227-0.258-18.213-2.053-26.635-5.298C108.612,68.113,119.954,56.174,125.718,50.587z M103.767,114.716l2.948,11.002
			H83.698c1.606-13.762,6.754-26.673,13.058-37.896c9.138,3.613,18.914,5.613,28.962,5.878v16.922l-14.084-3.774
			C106.861,105.566,102.484,109.934,103.767,114.716z M121.882,47.891c-6.265,6.066-17.662,18.168-27.189,34.086
			c-7.448-3.396-14.396-7.933-20.591-13.547C87.355,56.405,104.023,49.237,121.882,47.891z M70.817,71.58
			c6.496,5.93,13.762,10.768,21.576,14.38c-6.49,11.693-11.751,25.207-13.312,39.758H47.695
			C48.26,105.224,56.401,86.16,70.817,71.58z M47.695,130.282h31.023c-0.758,14.626,2.421,28.517,9.666,41.751
			c-6.3,3.33-12.197,7.483-17.567,12.386C56.402,169.841,48.26,150.776,47.695,130.282z M74.102,187.57
			c5.069-4.594,10.646-8.458,16.583-11.579c6.979,11.33,16.966,22.026,29.923,32.026C103.117,206.368,87.092,199.343,74.102,187.57z
			 M125.718,206.161c-13.495-10.049-23.812-20.805-30.903-32.195c9.627-4.37,20.097-6.803,30.903-7.104V206.161z M125.718,162.3
			c-11.63,0.307-22.899,2.934-33.231,7.695c-6.913-12.566-9.983-25.799-9.187-39.712h24.637l6.318,23.579
			c1.132,4.222,6.572,7.055,11.463,2.164V162.3z M122.174,153.913c-1.324,1.324-3.573,0.712-4.056-1.087l-10.488-39.146
			c-0.482-1.795,1.155-3.455,2.969-2.969c42.352,11.348,40.351,10.298,40.858,12.203c0.109,0.406,0.267,1.448-0.627,2.342
			L122.174,153.913z M130.282,166.862c10.807,0.302,21.276,2.735,30.904,7.104c-7.092,11.39-17.409,22.146-30.904,32.195V166.862z
			 M135.391,208.018c12.958-10,22.944-20.697,29.923-32.026c5.937,3.12,11.515,6.985,16.584,11.579
			C169.28,199.036,153.244,206.334,135.391,208.018z M185.183,184.42c-5.37-4.903-11.267-9.056-17.567-12.386
			c7.244-13.232,10.424-27.122,9.666-41.751h31.023C207.74,150.776,199.599,169.84,185.183,184.42z"/>
		<path class="st8" d="M128,8.521C62.119,8.521,8.521,62.119,8.521,128S62.119,247.479,128,247.479S247.479,193.881,247.479,128
			S193.881,8.521,128,8.521z M128,242.915c-63.364,0-114.915-51.551-114.915-114.915S64.636,13.085,128,13.085
			S242.915,64.636,242.915,128S191.364,242.915,128,242.915z"/>
	</g>
</g>
</svg>
